<svg id="Capa_1" enable-background="new 0 0 512 512" height="18" viewBox="0 0 512 512" width="18" xmlns="http://www.w3.org/2000/svg"><g><path d="m158.688 254.073c-.018-19.505 4.938-39.277 15.392-57.384s25.099-32.285 42-42.022l-79.344-137.427c-40.267 23.198-75.158 56.976-100.065 100.116s-36.714 90.246-36.671 136.717z"/><path d="m353.312 254.073c.018-19.505-4.938-39.277-15.392-57.384s-25.099-32.285-42-42.022l79.344-137.427c40.267 23.198 75.158 56.976 100.065 100.116s36.714 90.245 36.671 136.717z"/><path d="m197.825 321.058c16.939 9.672 36.571 15.154 57.479 15.035s40.476-5.825 57.303-15.689l80.126 136.973c-40.09 23.502-86.712 37.096-136.525 37.38s-96.586-12.776-136.942-35.82z"/><circle cx="256" cy="242.323" r="54.007"/></g></svg>
